<?xml version="1.0" standalone="no"?>
<!DOCTYPE svg PUBLIC "-//W3C//DTD SVG 20010904//EN"
 "http://www.w3.org/TR/2001/REC-SVG-20010904/DTD/svg10.dtd">
<svg version="1.0" xmlns="http://www.w3.org/2000/svg"
 width="1245.000000pt" height="1245.000000pt" viewBox="0 0 1245.000000 1245.000000"
 preserveAspectRatio="xMidYMid meet">
<metadata>
Created by potrace 1.14, written by Peter Selinger 2001-2017
</metadata>
<g transform="translate(0.000000,1245.000000) scale(0.100000,-0.100000)"
fill="#000000" stroke="none">
<path d="M4315 12059 c-288 -403 -298 -420 -320 -543 -5 -33 -17 -77 -35 -141
-18 -62 -116 -252 -173 -335 -130 -192 -279 -345 -524 -539 -109 -85 -193
-178 -288 -316 -38 -55 -86 -125 -107 -155 -23 -34 -66 -131 -113 -255 -92
-243 -169 -403 -270 -555 -168 -252 -343 -430 -605 -614 -65 -46 -43 -18 -283
-341 -106 -143 -209 -278 -229 -299 -49 -53 -54 -74 -20 -82 15 -3 41 -9 57
-13 32 -8 56 -8 146 4 49 7 58 5 81 -16 18 -16 32 -45 42 -84 28 -113 56 -175
90 -196 32 -21 36 -21 222 -3 57 6 62 4 81 -20 11 -14 26 -53 33 -88 16 -82
43 -134 81 -153 25 -14 52 -15 153 -10 144 7 146 6 170 -83 35 -126 48 -164
55 -156 4 5 38 54 75 109 37 55 104 154 150 220 45 66 113 165 151 220 37 55
96 141 130 190 48 69 69 111 90 180 50 165 194 419 345 610 82 103 132 157
258 281 l102 101 -53 79 c-66 99 -102 203 -101 296 3 183 148 385 317 441 73
24 202 17 300 -18 43 -14 80 -25 81 -23 1 1 13 28 25 58 41 98 139 277 207
377 111 163 234 293 384 407 69 53 100 88 226 256 79 107 153 206 164 220 336
448 393 529 381 544 -6 7 -30 27 -53 42 -23 16 -283 201 -577 412 -294 210
-541 382 -550 382 -10 0 -129 -157 -296 -391z"/>
<path d="M8979 11777 c-501 -489 -869 -851 -869 -857 0 -3 18 -19 39 -36 21
-16 63 -52 93 -79 30 -28 86 -78 124 -111 38 -34 83 -74 99 -89 576 -528 633
-588 863 -916 152 -218 502 -757 502 -773 0 -2 18 -35 40 -72 23 -38 44 -75
48 -83 4 -7 11 -14 14 -15 4 0 134 89 289 199 156 110 306 216 333 235 239
164 556 395 556 404 -1 15 -57 117 -239 434 -42 74 -88 155 -102 180 -96 171
-309 491 -418 627 -139 174 -380 425 -566 590 -49 44 -92 82 -95 85 -24 24
-167 144 -260 219 -63 51 -122 98 -131 106 -60 48 -147 115 -150 115 -2 0 -79
-73 -170 -163z"/>
<path d="M6140 10686 c-30 -7 -76 -22 -101 -35 -45 -23 -114 -79 -106 -87 2
-2 23 2 45 10 44 16 50 12 28 -17 -12 -15 -14 -175 -14 -955 0 -586 3 -943 9
-954 6 -10 42 -40 82 -66 40 -26 78 -53 85 -59 41 -39 40 -60 40 1000 1 963 0
1014 -18 1043 l-18 32 36 -4 c47 -4 60 -18 39 -42 -16 -17 -17 -98 -17 -1041
l0 -1022 25 -23 c14 -13 51 -41 82 -63 61 -41 422 -294 750 -525 62 -44 121
-81 132 -83 24 -4 112 62 225 170 12 11 57 51 101 89 44 38 105 92 136 120 31
28 92 83 135 121 43 39 85 77 94 85 9 8 61 56 115 105 55 50 106 97 115 105 9
8 65 60 124 115 133 122 160 147 311 290 66 63 147 139 180 170 33 31 121 117
195 190 145 142 219 204 269 224 17 8 31 18 31 23 0 34 -209 295 -360 450
l-101 103 -20 -25 c-49 -61 -94 -101 -190 -170 -139 -98 -580 -420 -634 -462
-5 -5 -143 -108 -305 -230 -239 -179 -536 -407 -620 -475 -8 -7 -87 -69 -175
-139 -88 -70 -174 -139 -190 -153 -70 -59 -119 -96 -127 -96 -6 0 -11 391 -13
1030 -2 773 -5 1037 -14 1060 -15 37 -57 82 -95 102 -28 14 -72 13 -123 -3
-14 -4 -13 -1 6 15 13 12 36 21 52 21 40 0 36 17 -8 36 -70 29 -121 35 -193
20z m0 -87 c10 -6 1 -9 -30 -9 -25 -1 -53 -3 -62 -5 -20 -4 -25 20 -5 29 15 6
77 -3 97 -15z"/>
<path d="M5920 10528 l-45 -23 0 -889 0 -888 30 -24 c17 -13 37 -24 46 -24 16
0 17 73 17 935 0 514 -1 935 -2 935 -1 0 -22 -10 -46 -22z"/>
<path d="M4077 9688 c-56 -12 -91 -33 -145 -87 -93 -93 -133 -226 -102 -337
36 -129 96 -203 222 -271 59 -32 313 -204 378 -256 9 -7 35 -25 60 -42 43 -29
304 -211 345 -241 21 -15 625 -438 755 -529 90 -62 324 -227 849 -595 215
-151 431 -302 479 -336 48 -33 240 -168 427 -299 187 -131 363 -254 390 -274
28 -19 176 -123 330 -231 281 -197 481 -338 1237 -869 225 -157 443 -311 486
-341 44 -30 165 -116 271 -190 105 -74 223 -157 261 -184 39 -27 81 -48 94
-48 50 0 208 132 276 232 64 95 120 236 120 305 0 37 -7 44 -115 117 -65 44
-329 228 -665 463 -25 17 -97 67 -160 110 -63 44 -119 83 -125 88 -5 4 -104
74 -220 154 -115 80 -289 201 -385 268 -96 67 -206 144 -245 170 -219 152
-530 369 -825 575 -446 311 -445 311 -520 361 -35 24 -71 49 -80 56 -13 11
-224 158 -435 304 -245 169 -743 515 -825 572 -52 37 -129 90 -170 119 -168
116 -241 166 -360 249 -69 48 -174 122 -235 164 -404 281 -791 554 -901 636
-71 53 -147 107 -169 121 -97 59 -211 85 -298 66z"/>
<path d="M5593 7621 c-54 -44 -152 -123 -218 -176 -66 -53 -129 -104 -140
-113 -149 -124 -600 -464 -812 -613 -292 -206 -458 -311 -633 -400 -125 -64
-166 -110 -200 -222 -37 -119 81 -343 325 -616 70 -79 109 -114 199 -183 116
-86 145 -100 208 -93 56 7 135 36 180 67 15 10 59 60 99 111 40 51 102 126
138 167 68 79 513 526 616 620 34 30 103 94 155 141 52 47 118 106 146 130
101 87 92 28 92 648 0 299 -4 554 -8 567 -5 12 -18 28 -29 33 -17 10 -34 0
-118 -68z"/>
<path d="M5876 4455 c0 -1708 4 -3108 8 -3112 14 -15 38 27 58 103 l21 79 3
2974 c3 2597 2 2977 -11 3001 -15 29 -51 60 -70 60 -7 0 -10 -986 -9 -3105z"/>
<path d="M5994 4473 c1 -1655 5 -3019 9 -3033 4 -13 9 -42 12 -65 3 -22 8 -47
10 -55 2 -8 6 -31 9 -50 9 -53 15 -90 26 -140 7 -36 20 -107 21 -122 0 -2 7
-32 14 -68 25 -114 14 -109 -20 11 -18 63 -48 199 -66 302 -18 102 -36 184
-40 181 -4 -2 -10 -18 -14 -34 -8 -36 -51 -90 -71 -90 -10 0 -13 -8 -10 -28
11 -64 16 -93 31 -201 8 -62 17 -123 20 -135 2 -11 7 -43 10 -71 3 -27 8 -57
10 -65 2 -8 6 -31 9 -50 32 -215 101 -468 173 -636 45 -103 69 -122 59 -48 -6
48 -9 80 -21 214 -12 132 -14 157 -20 255 -10 167 -14 209 -25 244 -8 28 -6
36 10 50 14 12 20 34 24 87 6 74 14 156 22 213 5 38 12 142 21 301 7 131 15
5834 8 5876 -4 25 -22 42 -101 97 -52 37 -99 67 -104 67 -5 0 -8 -1272 -6
-3007z"/>
<path d="M6232 4433 l3 -2888 22 -53 c21 -51 19 -64 -5 -40 -16 16 -31 -4 -33
-47 -1 -16 -3 -48 -4 -70 -5 -96 -17 -262 -20 -290 -2 -16 -7 -59 -11 -95 -3
-36 -8 -74 -10 -85 -5 -28 -18 -166 -17 -190 1 -21 10 -154 18 -245 5 -58 11
-132 20 -240 7 -83 14 -140 22 -164 14 -47 114 180 152 346 51 218 96 486 106
618 5 79 10 130 20 205 14 109 16 165 7 165 -6 0 -15 -6 -19 -14 -10 -17 -47
-36 -69 -36 -33 0 -99 40 -121 73 -36 52 -27 54 27 3 42 -39 55 -46 90 -46 35
0 43 4 60 33 11 17 25 50 32 72 15 52 22 5556 7 5625 -13 58 -48 103 -107 137
-26 15 -73 46 -105 70 -31 24 -59 43 -62 43 -3 0 -4 -1299 -3 -2887z"/>
<path d="M5667 4664 c-1 -1 -177 -5 -392 -9 -214 -3 -473 -8 -575 -10 -102 -2
-338 -6 -525 -10 -448 -8 -693 -13 -960 -19 -121 -3 -341 -8 -490 -11 -787
-16 -724 -13 -764 -37 -143 -86 -250 -177 -283 -241 -20 -41 -80 -267 -114
-432 -1 -5 -20 -82 -43 -169 -47 -181 -84 -281 -142 -381 -44 -76 -46 -94 -35
-235 5 -71 13 -219 21 -415 3 -86 14 -238 19 -273 3 -16 47 -17 541 -19 296
-1 547 -4 559 -7 17 -4 88 -100 105 -141 8 -20 109 -150 132 -172 34 -30 96
-63 119 -63 59 0 46 102 -37 278 -23 51 -43 96 -43 100 0 7 596 5 617 -3 7 -2
50 -62 96 -132 90 -139 121 -174 193 -222 54 -36 66 -37 89 -14 33 32 9 124
-73 288 -23 44 -39 81 -37 84 6 5 585 8 608 3 9 -3 42 -43 73 -89 97 -150 134
-193 196 -234 34 -21 66 -39 72 -39 61 1 54 104 -19 258 -25 52 -43 97 -40
100 3 4 410 6 531 3 17 -1 41 -31 102 -125 98 -151 111 -167 187 -222 65 -48
89 -54 105 -24 23 44 -3 147 -75 290 -19 38 -35 73 -35 78 0 5 80 9 178 10 97
0 186 1 197 1 20 1 20 7 20 1126 0 619 -2 1126 -5 1126 -10 3 -70 5 -73 3z
m-553 -573 c56 -35 203 -198 233 -258 24 -49 28 -70 27 -138 0 -81 -8 -105
-71 -219 -26 -48 -144 -159 -203 -191 l-55 -29 -200 -2 c-217 -2 -657 -12
-825 -19 -58 -3 -186 -7 -285 -10 -381 -10 -671 -25 -795 -41 -29 -3 -45 2
-82 28 -132 95 -229 220 -254 328 -30 134 40 300 178 425 96 87 113 94 218 99
184 9 510 16 970 21 462 5 953 15 957 18 1 1 36 3 79 5 61 1 83 -2 108 -17z"/>
<path d="M6649 4608 c0 -11 0 -1644 1 -2075 l0 -123 253 0 c138 0 257 -4 263
-8 6 -4 37 -47 70 -97 80 -122 133 -174 222 -222 19 -10 26 -9 43 8 16 16 19
28 14 62 -9 63 -30 127 -59 185 -14 28 -26 56 -26 62 0 16 582 14 602 -2 8 -7
50 -66 92 -130 62 -94 90 -128 147 -173 39 -30 77 -55 84 -55 51 0 57 107 10
205 -15 33 -38 82 -51 109 -13 28 -24 51 -24 53 0 2 197 3 438 3 l439 0 66
-109 c77 -125 142 -202 206 -243 56 -35 84 -36 99 -4 22 48 0 128 -78 284 -17
35 -29 66 -26 70 8 8 376 7 408 -1 14 -4 28 -13 31 -21 3 -8 44 -72 90 -142
84 -127 115 -164 170 -197 81 -51 110 -38 102 46 -8 75 -18 103 -91 250 l-33
67 42 1 c123 3 528 1 531 -2 2 -2 40 -60 86 -129 91 -137 156 -207 218 -239
62 -32 82 -15 82 70 0 37 -20 96 -137 408 -58 157 -64 178 -58 222 8 55 -8 92
-44 104 -19 6 -38 49 -134 300 -73 193 -70 181 -60 235 12 57 4 74 -39 84 -16
3 -27 10 -26 14 4 12 -83 240 -95 251 -7 5 -25 10 -42 11 -56 4 -57 3 -39 -37
8 -21 33 -85 55 -143 22 -58 44 -114 49 -125 5 -11 28 -69 50 -130 23 -60 45
-119 50 -130 4 -11 20 -51 35 -90 15 -38 76 -197 136 -352 60 -156 109 -287
109 -293 0 -5 -4 -10 -9 -10 -5 0 -16 -2 -23 -5 -9 -4 -18 7 -27 32 -14 43
-28 78 -211 543 -141 358 -340 884 -340 899 0 22 -49 42 -140 56 -19 3 -48 8
-65 11 -16 3 -196 38 -400 79 -203 41 -386 77 -405 80 -19 3 -42 8 -50 10 -8
2 -31 7 -50 10 -19 3 -66 12 -105 20 -38 8 -108 21 -155 30 -141 27 -283 54
-310 59 -50 11 -126 26 -150 30 -25 4 -173 32 -220 41 -57 11 -288 55 -320 60
-19 3 -66 12 -105 20 -117 23 -278 54 -315 60 -19 3 -66 12 -105 20 -81 16
-542 101 -597 109 -95 15 -113 18 -120 23 -5 2 -8 -2 -9 -9z"/>
</g>
</svg>
